<svg width="1161" height="558" viewBox="0 0 1161 558" fill="none" xmlns="http://www.w3.org/2000/svg">
<path d="M1145.26 399.911C1138.77 430.207 1118.23 457.059 1084.5 479.43C1050.71 501.845 1004.38 519.23 948.317 530.439C836.228 552.847 687.686 550.077 529.514 516.227C371.342 482.376 234.677 424.109 141.578 357.788C95.0097 324.614 59.8589 289.793 38.1967 255.508C16.5777 221.292 8.82658 188.385 15.3102 158.089C21.7938 127.794 42.3341 100.942 76.0633 78.5706C109.86 56.1548 156.183 38.7703 212.25 27.5615C324.338 5.15284 472.88 7.92311 631.052 41.7738C789.225 75.6244 925.89 133.892 1018.99 200.213C1065.56 233.387 1100.71 268.208 1122.37 302.492C1143.99 336.708 1151.74 369.615 1145.26 399.911Z" fill="#FF206E" stroke="#0C0F0A" stroke-width="25.5366"/>
</svg>
